<?xml version="1.0" encoding="UTF-8"?>
<svg id="Calque_1" data-name="Calque 1" xmlns="http://www.w3.org/2000/svg" viewBox="0 0 28.06 26.78">
  <defs>
    <style>
      .cls-1 {
        fill: none;
        stroke: #8fa0d8;
        stroke-width: 2px;
      }

      .cls-2 {
        fill: none;
        stroke: #ff8400;
        stroke-miterlimit: 10;
        stroke-width: 1px
      }
    </style>
  </defs>
  <polygon class="cls-1" points="5.28 15.93 4.57 15.93 4.57 7.93 14.03 2.46 20.97 6.46 20.61 7.08 14.03 3.29 5.28 8.34 5.28 15.93"/>
  <polygon class="cls-1" points="14.03 24.32 7.1 20.31 7.46 19.69 14.03 23.49 22.78 18.44 22.78 10.85 23.5 10.85 23.5 18.85 14.03 24.32"/>
  <polygon class="cls-2" points="9.03 14.75 8.78 14.75 8.87 10.5 14.05 7.51 14.11 7.55 17.77 9.56 17.65 9.78 14.05 7.8 9.12 10.65 9.03 14.75"/>
  <polygon class="cls-2" points="14.02 19.42 10.29 17.37 10.41 17.15 14.01 19.13 18.95 16.28 19.03 12.17 19.28 12.18 19.19 16.43 14.02 19.42"/>
</svg>