<?xml version="1.0" encoding="UTF-8"?>
<svg id="Calque_1" data-name="Calque 1" xmlns="http://www.w3.org/2000/svg" viewBox="0 0 92.82 36.63">
  <defs>
    <style>
      .cls-1 {
        fill: #8fa0d8;
      }

      .cls-2 {
        fill: none;
        stroke: #ff8400;
        stroke-miterlimit: 10;
        stroke-width: .25px;
      }
    </style>
  </defs>
  <polygon class="cls-2" points="41.97 19.57 41.72 19.56 41.81 15.31 46.99 12.32 47.05 12.36 50.71 14.37 50.59 14.59 46.99 12.61 42.06 15.46 41.97 19.57"/>
  <polygon class="cls-2" points="47.01 24.28 43.28 22.23 43.41 22.01 47 23.99 51.94 21.14 52.02 17.04 52.27 17.04 52.18 21.29 47.01 24.28"/>
  <g>
    <path class="cls-1" d="M18.09,29.59c-.74,0-1.38-.22-1.95-.65-.56-.43-.93-1-1.1-1.72l.73-.17c.13.52.41.95.82,1.3s.93.52,1.52.52c.37,0,.74-.08,1.11-.26.37-.17.66-.45.88-.85.15-.28.24-.58.27-.89s.04-.69.04-1.13v-8.64h.71v8.64c0,.31,0,.6,0,.87,0,.27-.04.53-.09.78s-.15.5-.29.75c-.27.48-.64.84-1.11,1.08-.47.24-.98.37-1.54.37Z"/>
    <path class="cls-1" d="M27.39,29.61c-.87,0-1.61-.2-2.24-.59-.63-.39-1.11-.95-1.45-1.67s-.51-1.59-.51-2.58.17-1.87.5-2.59c.34-.73.82-1.28,1.45-1.67.63-.39,1.38-.58,2.25-.58s1.63.2,2.25.59c.62.4,1.1.97,1.43,1.73s.5,1.66.5,2.73h-.76v-.24c-.04-1.32-.34-2.33-.93-3.04-.59-.71-1.41-1.06-2.49-1.06s-1.93.36-2.53,1.08c-.6.72-.9,1.74-.9,3.05s.3,2.32.9,3.05c.6.72,1.44,1.08,2.53,1.08.76,0,1.43-.18,2-.54.57-.36,1.03-.87,1.37-1.54l.59.34c-.37.78-.9,1.39-1.59,1.81-.69.43-1.48.64-2.37.64ZM23.65,24.97v-.71h7.48v.71h-7.48ZM27.94,18.64h-.75l.82-2.29h.75l-.82,2.29Z"/>
    <path class="cls-1" d="M37.52,20.85c-.38-.08-.78-.1-1.21-.05-.43.05-.82.25-1.19.59-.32.3-.55.65-.68,1.04-.13.39-.21.79-.24,1.21-.03.42-.04.81-.04,1.19v4.52h-.71v-9.18h.66v2.19l-.22-.29c.1-.25.22-.48.37-.7.15-.22.29-.39.43-.53.25-.24.55-.43.89-.56.34-.13.69-.2,1.03-.22.35-.02.65.01.92.1h0v-7.32l9.47-5.47,6.93,4-.36.62-6.57-3.79-8.75,5.05v7.59h-.72Z"/>
  </g>
  <g>
    <path class="cls-1" d="M56.45,16.86,56.45,15.77v8l-9.47,5.47-6.93-4,.36-.62,6.57,3.79,8.75-5.05v-8.64s0-7.04,0-7.04h.66v1.87h.05v6.22ZM55.74,16.86,61.19,16.86l.02-6.21c0-.79-.22-1.42-.66-1.89-.44-.46-1.01-.7-1.7-.7s-1.29.24-1.73.73c-.44.49-.66,1.14-.66,1.96l-.63-.27c0-.59.13-1.12.4-1.58.27-.46.63-.82,1.1-1.09s1-.39,1.61-.39c.52,0,1,.11,1.45.33.45.22.82.56,1.1,1.02s.42,1.05.42,1.77l-.02,6.32h-.7ZM66.63,16.86l.02-6.32c0-.76-.22-1.37-.67-1.81-.45-.44-1-.66-1.66-.66-.36,0-.73.08-1.1.25-.37.17-.68.44-.93.83-.25.39-.38.93-.38,1.61h-.63c-.03-.67.09-1.26.35-1.76.26-.5.63-.89,1.11-1.16.48-.28,1.02-.41,1.63-.41.87,0,1.58.27,2.15.82.56.54.85,1.29.85,2.24l-.02,6.38h-.71Z"/>
    <path class="cls-1" d="M73.26,17.11c-.87,0-1.61-.2-2.24-.59-.63-.39-1.11-.95-1.45-1.67-.34-.73-.51-1.59-.51-2.58s.17-1.87.51-2.59.82-1.28,1.45-1.67c.63-.39,1.38-.58,2.25-.58s1.63.2,2.25.59c.62.4,1.1.97,1.43,1.73.33.75.5,1.66.5,2.73h-.76v-.24c-.03-1.32-.34-2.33-.93-3.04-.59-.71-1.42-1.06-2.49-1.06s-1.93.36-2.53,1.08c-.6.72-.9,1.74-.9,3.05s.3,2.32.9,3.05,1.45,1.08,2.53,1.08c.76,0,1.42-.18,2-.54.57-.36,1.03-.87,1.37-1.54l.59.34c-.37.78-.9,1.39-1.59,1.81-.69.43-1.48.64-2.37.64ZM69.52,12.47v-.71h7.48v.71h-7.48Z"/>
  </g>
</svg>