<?xml version="1.0" encoding="UTF-8"?>
<svg id="Calque_1" data-name="Calque 1" xmlns="http://www.w3.org/2000/svg" viewBox="0 0 28.06 26.78">
  <defs>
    <style>
      .cls-1 {
        fill: #8fa0d8;
      }

      .cls-2 {
        fill: none;
        stroke: #ff8400;
        stroke-miterlimit: 10;
        stroke-width: .25px;
      }
    </style>
  </defs>
  <g>
    <polygon class="cls-1" points="5.28 15.93 4.57 15.93 4.57 7.93 14.03 2.46 20.97 6.46 20.61 7.08 14.03 3.29 5.28 8.34 5.28 15.93"/>
    <polygon class="cls-1" points="14.03 24.32 7.1 20.31 7.46 19.69 14.03 23.49 22.78 18.44 22.78 10.85 23.5 10.85 23.5 18.85 14.03 24.32"/>
  </g>
  <g>
    <polygon class="cls-2" points="9.13 14.85 8.88 14.85 8.97 10.6 14.15 7.61 14.21 7.65 17.87 9.66 17.75 9.88 14.15 7.9 9.22 10.75 9.13 14.85"/>
    <polygon class="cls-2" points="13.92 19.17 10.19 17.12 10.31 16.9 13.91 18.88 18.85 16.03 18.93 11.92 19.18 11.93 19.09 16.18 13.92 19.17"/>
  </g>
</svg>